<?xml version="1.0" encoding="UTF-8"?>
<svg xmlns="http://www.w3.org/2000/svg" xmlns:xlink="http://www.w3.org/1999/xlink" width="800px" height="915px" viewBox="0 0 800 914" version="1.1">
<g id="surface1">
<path style=" stroke:none;fill-rule:evenodd;fill:rgb(100%,100%,100%);fill-opacity:1;" d="M 521.957031 307.519531 L 579.375 364.871094 L 500.917969 443.246094 L 645.992188 588.167969 L 646 588.167969 L 704.878906 646.992188 L 799.449219 741.457031 L 742.035156 798.808594 L 443.503906 500.597656 L 365.046875 578.972656 L 307.632812 521.617188 Z M 396.941406 0.222656 C 498.53125 0.222656 600.117188 38.933594 677.625 116.359375 C 793.882812 232.496094 822.953125 402.753906 764.820312 545.945312 L 750.160156 577.507812 L 688.160156 515.574219 L 688.441406 514.96875 C 734.5 401.5 711.46875 266.597656 619.34375 174.570312 C 496.519531 51.875 297.371094 51.875 174.539062 174.570312 C 51.710938 297.269531 51.710938 496.207031 174.539062 618.898438 C 266.660156 710.921875 401.710938 733.929688 515.304688 687.917969 L 515.910156 687.636719 L 577.910156 749.570312 L 684.617188 856.167969 L 627.203125 913.523438 L 494.570312 781.03125 L 491.449219 781.910156 C 361.199219 813.667969 217.992188 778.734375 116.261719 677.117188 C -38.75 522.261719 -38.75 271.207031 116.261719 116.359375 C 193.773438 38.933594 295.359375 0.222656 396.941406 0.222656 Z M 396.941406 0.222656 "/>
</g>
</svg>
